<svg width="16" height="16" viewBox="0 0 16 16" fill="none" xmlns="http://www.w3.org/2000/svg">
<g clip-path="url(#clip0_814_3440)">
<path d="M3 7.66663C3 10.4281 5.23857 12.6666 8 12.6666C10.7614 12.6666 13 10.4281 13 7.66663" stroke="white" stroke-width="1.33333" stroke-linecap="round" stroke-linejoin="round"/>
<path d="M8 12.6666V14.6666" stroke="white" stroke-width="1.33333" stroke-linecap="round" stroke-linejoin="round"/>
<rect x="4.5" y="2" width="7" height="9" rx="3.5" fill="white"/>
<path d="M13.9169 2.33576C14.5551 2.54849 14.5551 3.45162 13.9169 3.66435L13.314 3.8653C12.8661 4.0146 12.5145 4.36618 12.3652 4.81409L12.1643 5.41693C11.9516 6.05512 11.0484 6.05511 10.8357 5.41693L10.6348 4.81409C10.4855 4.36618 10.1339 4.0146 9.68597 3.8653L9.08313 3.66435C8.44494 3.45162 8.44495 2.54849 9.08313 2.33576L9.68597 2.13482C10.1339 1.98552 10.4855 1.63393 10.6348 1.18603L10.8357 0.583189C11.0352 -0.0151705 11.8415 -0.0530391 12.1166 0.470632L12.1643 0.583189L12.3652 1.18603C12.5145 1.63393 12.8661 1.98552 13.314 2.13482L13.9169 2.33576Z" fill="white" stroke="#3C72FF"/>
</g>
<defs>
<clipPath id="clip0_814_3440">
<rect width="16" height="16" fill="white"/>
</clipPath>
</defs>
</svg>
