<svg preserveAspectRatio="xMidYMid meet" width="68" height="68" overflow="visible" style="display: block;" viewBox="0 0 68 68" fill="none" xmlns="http://www.w3.org/2000/svg">
<g id="数据表-空">
<path id="Vector 5610" d="M62.9 50.8111V13.2222C62.9 12.8049 62.5617 12.4667 62.1444 12.4667H5.85556C5.43827 12.4667 5.1 12.8049 5.1 13.2222V50.8111C5.1 51.2284 5.43827 51.5667 5.85555 51.5667H62.1444C62.5617 51.5667 62.9 51.2284 62.9 50.8111Z" fill="#E0EAFF"/>
<path id="Vector 5596" d="M57.0444 26.2556L56.2888 25.1222V47.9778L31.7333 48.3556L32.6777 49.8667H58.1777L57.0444 26.2556Z" fill="#E0EAFF"/>
<path id="Rectangle 34624359" d="M10.5286 17.7306C10.5421 17.3232 10.8762 17 11.2837 17H57.611C58.0283 17 58.3666 17.3383 58.3666 17.7556V44.5689C58.3666 44.9897 58.0229 45.3293 57.6023 45.3244L10.4052 44.7756C9.98157 44.7707 9.64479 44.4185 9.65881 43.9951L10.5286 17.7306Z" fill="#F4F7FE"/>
<path id="Union" d="M57.0374 20.1857C57.2717 20.1816 57.4653 20.3683 57.4698 20.6026L57.5061 22.5143C57.5104 22.7486 57.3234 22.942 57.0892 22.9467C56.8545 22.9511 56.6598 22.7645 56.6553 22.5299L56.6198 20.6189C56.6156 20.3844 56.8029 20.1902 57.0374 20.1857ZM62.6674 23.3058C62.8269 23.4778 62.8172 23.7462 62.6454 23.9059L61.3247 25.1309C61.1526 25.2903 60.884 25.2796 60.7245 25.1075C60.5651 24.9354 60.5753 24.6676 60.7472 24.5081L62.068 23.283C62.24 23.1238 62.5079 23.134 62.6674 23.3058ZM60.4492 20.6318C60.6589 20.7371 60.7446 20.9925 60.6392 21.2022L59.5467 23.3743C59.4412 23.5837 59.1862 23.6675 58.9767 23.5622C58.7673 23.4567 58.6831 23.2024 58.7882 22.9929L59.8792 20.8197C59.9846 20.6104 60.2397 20.5268 60.4492 20.6318Z" fill="#101019"/>
<g id="Group 1912054722">
<path id="Rectangle 34624360" d="M10.5235 24.5251C10.5398 24.12 10.873 23.8 11.2784 23.8H57.611C58.0283 23.8 58.3666 24.1383 58.3666 24.5556V46.2705C58.3666 46.6906 58.0239 47.0301 57.6038 47.0261L10.4124 46.5761C9.98605 46.572 9.6475 46.2161 9.66471 45.7901L10.5235 24.5251Z" fill="white"/>
<g id="Group 1912054720">
<path id="Rectangle 34624354" d="M14.2659 29.8933C14.315 28.7049 15.2926 27.7667 16.482 27.7667C17.707 27.7667 18.7 28.7597 18.7 29.9847V30.0801C18.7 31.3061 17.7061 32.3 16.4801 32.3C15.2182 32.3 14.21 31.2494 14.262 29.9886L14.2659 29.8933Z" fill="#EBF1FF"/>
</g>
<path id="Vector 5622" d="M20.9667 30.0334H53.8334" stroke="#EBF1FF" stroke-width="2.26667"/>
<g id="Group 1912054721">
<path id="Rectangle 34624354_2" d="M14.2659 38.3933C14.315 37.2049 15.2926 36.2667 16.482 36.2667C17.707 36.2667 18.7 37.2597 18.7 38.4847V38.5801C18.7 39.8061 17.7061 40.8 16.4801 40.8C15.2182 40.8 14.21 39.7494 14.262 38.4886L14.2659 38.3933Z" fill="#EBF1FF"/>
</g>
<path id="Vector 5642" d="M20.9667 38.5334H53.2667" stroke="#EBF1FF" stroke-width="2.26667"/>
</g>
<g id="Group 1912054723">
<path id="Vector 5632" d="M12.0803 48.1528C12.4757 50.525 15.3061 54.2632 18.011 53.4904C20.0868 52.8973 18.6041 50.8216 15.9353 50.8216C14.4526 50.8216 12.9699 52.8973 15.3422 55.8627C16.7656 57.6419 19.1972 59.1245 22.4591 58.5315" stroke="#101019" stroke-width="0.711684"/>
<g id="Group 1912054717">
<path id="Vector 5592" d="M32.753 60.9572C30.7305 56.8557 27.3605 57.6619 25.9282 58.5777L24.948 58.9488C25.0856 59.3593 25.5495 60.3968 26.3047 61.2637C27.2486 62.3473 29.3141 63.4332 32.753 60.9572Z" fill="#2DC01F"/>
<path id="Vector 5593" d="M29.8726 60.6072C27.2038 60.6072 25.1714 59.2332 25.1714 59.2332" stroke="#101019" stroke-width="0.711684"/>
</g>
</g>
</g>
</svg>
